<svg xmlns="http://www.w3.org/2000/svg" viewBox="0 0 1200 630" width="1200" height="630"><rect width="1200" height="630" fill="#181a18"/><text x="72" y="190" font-family="'Iowan Old Style','Palatino Linotype',Georgia,serif" font-size="88" font-weight="600" fill="#e9e8e2">In my own words</text><rect x="344.7" y="368.0" width="10" height="10" fill="#adb08a" shape-rendering="crispEdges"/><rect x="356.4" y="353.8" width="10" height="16" fill="#adb08a" shape-rendering="crispEdges"/><rect x="370.7" y="338.2" width="10" height="26" fill="#adb08a" shape-rendering="crispEdges"/><rect x="387.3" y="322.3" width="10" height="38" fill="#adb08a" shape-rendering="crispEdges"/><rect x="406.2" y="316.2" width="10" height="32" fill="#adb08a" shape-rendering="crispEdges"/><rect x="427.0" y="299.1" width="10" height="50" fill="#adb08a" shape-rendering="crispEdges"/><rect x="449.6" y="285.9" width="10" height="62" fill="#adb08a" shape-rendering="crispEdges"/><rect x="473.8" y="282.8" width="10" height="56" fill="#adb08a" shape-rendering="crispEdges"/><rect x="499.3" y="269.8" width="10" height="72" fill="#adb08a" shape-rendering="crispEdges"/><rect x="525.8" y="260.0" width="10" height="84" fill="#adb08a" shape-rendering="crispEdges"/><rect x="553.0" y="265.5" width="10" height="68" fill="#adb08a" shape-rendering="crispEdges"/><rect x="580.6" y="259.2" width="10" height="78" fill="#adb08a" shape-rendering="crispEdges"/><rect x="608.5" y="253.1" width="10" height="90" fill="#adb08a" shape-rendering="crispEdges"/><rect x="636.1" y="261.4" width="10" height="76" fill="#adb08a" shape-rendering="crispEdges"/><rect x="663.4" y="270.9" width="10" height="62" fill="#adb08a" shape-rendering="crispEdges"/><rect x="689.9" y="269.7" width="10" height="72" fill="#adb08a" shape-rendering="crispEdges"/><rect x="715.4" y="284.6" width="10" height="52" fill="#adb08a" shape-rendering="crispEdges"/><rect x="739.6" y="296.7" width="10" height="40" fill="#adb08a" shape-rendering="crispEdges"/><rect x="762.3" y="300.8" width="10" height="46" fill="#adb08a" shape-rendering="crispEdges"/><rect x="783.2" y="317.0" width="10" height="30" fill="#adb08a" shape-rendering="crispEdges"/><rect x="802.1" y="331.0" width="10" height="20" fill="#adb08a" shape-rendering="crispEdges"/><rect x="818.8" y="345.9" width="10" height="10" fill="#adb08a" shape-rendering="crispEdges"/><polygon points="863.6,380.0 818.4,373.9 844.5,338.5" fill="#adb08a"/><rect x="-24.0" y="-7.5" width="48.0" height="15" rx="4" fill="#adb08a" transform="translate(397.0 497.1) rotate(26.9)"/><rect x="-8.0" y="-7.5" width="16.0" height="15" rx="4" fill="#adb08a" transform="translate(435.8 513.3) rotate(18.8)"/><rect x="-31.0" y="-7.5" width="62.0" height="15" rx="4" fill="#adb08a" transform="translate(483.1 526.2) rotate(12.0)"/><rect x="-15.0" y="-7.5" width="30.0" height="15" rx="4" fill="#adb08a" transform="translate(538.3 534.8) rotate(6.0)"/><rect x="-8.0" y="-7.5" width="16.0" height="15" rx="4" fill="#adb08a" transform="translate(571.3 537.3) rotate(2.7)"/><rect x="-27.0" y="-7.5" width="54.0" height="15" rx="4" fill="#adb08a" transform="translate(616.2 537.8) rotate(-1.5)"/><rect x="-19.0" y="-7.5" width="38.0" height="15" rx="4" fill="#adb08a" transform="translate(672.2 533.6) rotate(-7.0)"/><rect x="-8.0" y="-7.5" width="16.0" height="15" rx="4" fill="#adb08a" transform="translate(708.5 527.9) rotate(-11.0)"/><rect x="-35.0" y="-7.5" width="70.0" height="15" rx="4" fill="#adb08a" transform="translate(759.8 514.7) rotate(-18.1)"/><rect x="-14.0" y="-7.5" width="28.0" height="15" rx="4" fill="#adb08a" transform="translate(813.9 491.2) rotate(-30.0)"/><rect x="-20.0" y="-7.5" width="40.0" height="15" rx="4" fill="#adb08a" transform="translate(493.7 501.6) rotate(10.6)"/><rect x="-8.0" y="-7.5" width="16.0" height="15" rx="4" fill="#adb08a" transform="translate(531.4 507.2) rotate(6.4)"/><rect x="-28.0" y="-7.5" width="56.0" height="15" rx="4" fill="#adb08a" transform="translate(577.1 510.6) rotate(2.1)"/><rect x="-15.0" y="-7.5" width="30.0" height="15" rx="4" fill="#adb08a" transform="translate(630.2 510.3) rotate(-2.7)"/><rect x="-8.0" y="-7.5" width="16.0" height="15" rx="4" fill="#adb08a" transform="translate(663.1 507.8) rotate(-5.9)"/><rect x="-23.0" y="-7.5" width="46.0" height="15" rx="4" fill="#adb08a" transform="translate(703.7 502.1) rotate(-10.2)"/><rect x="-17.0" y="-7.5" width="34.0" height="15" rx="4" fill="#adb08a" transform="translate(477.3 551.9) rotate(12.7)"/><rect x="-26.0" y="-7.5" width="52.0" height="15" rx="4" fill="#adb08a" transform="translate(529.4 560.8) rotate(6.9)"/><rect x="-8.0" y="-7.5" width="16.0" height="15" rx="4" fill="#adb08a" transform="translate(573.3 564.4) rotate(2.6)"/><rect x="-22.0" y="-7.5" width="44.0" height="15" rx="4" fill="#adb08a" transform="translate(613.2 564.9) rotate(-1.3)"/><rect x="-13.0" y="-7.5" width="26.0" height="15" rx="4" fill="#adb08a" transform="translate(658.2 562.2) rotate(-5.6)"/><rect x="-8.0" y="-7.5" width="16.0" height="15" rx="4" fill="#adb08a" transform="translate(688.8 558.3) rotate(-8.8)"/><rect x="-17.0" y="-7.5" width="34.0" height="15" rx="4" fill="#adb08a" transform="translate(723.2 551.8) rotate(-12.7)"/><polygon points="332.6,451.2 377.6,459.0 350.1,493.3" fill="#adb08a"/><circle cx="240" cy="384" r="38" fill="#e9e8e2"/><path d="M170 500 V490 A70 56 0 0 1 310 490 V500 Z" fill="#e9e8e2"/><rect x="957" y="330" width="6" height="20" fill="#e9e8e2"/><circle cx="960" cy="326" r="9" fill="#e9e8e2"/><rect x="914" y="348" width="92" height="78" rx="10" fill="#e9e8e2"/><rect x="932" y="372" width="16" height="16" fill="#181a18"/><rect x="972" y="372" width="16" height="16" fill="#181a18"/><rect x="940" y="404" width="40" height="6" fill="#181a18"/><rect x="896" y="436" width="128" height="64" rx="12" fill="#e9e8e2"/></svg>
